<svg xmlns="http://www.w3.org/2000/svg" x="0px" y="0px" viewBox="0 0 864 864" enable-background="new 0 0 864 864"><style>.ls0{fill:#1c1d1b}</style><g><path class="ls0" d="M420.5,134.8v594.3c-18.5-0.7-36.5-3.1-54-7c-94.6-21.2-172.1-87.6-208.9-175.2l49.8-20.9	c12.1,28.8,29.8,55.3,52.5,78c30.1,30.1,66.7,51.3,106.6,62.4v-469c-39.9,11.1-76.5,32.3-106.6,62.4c-5.2,5.2-10.2,10.6-14.8,16.2	l-41.5-34.6c41.2-49.3,98-85.1,162.9-99.7C384,137.9,402,135.5,420.5,134.8z"/><path class="ls0" d="M497.5,141.9c-17.5-3.9-35.5-6.3-54-7v594.3c18.5-0.7,36.5-3.1,54-7C630.2,692.3,729.4,573.7,729.4,432	S630.2,171.7,497.5,141.9z M675.4,432c0,65-25.3,126.1-71.3,172.1c-30.1,30.1-66.7,51.3-106.6,62.4v-469	c39.9,11.1,76.5,32.3,106.6,62.4C650.1,305.9,675.4,367,675.4,432z"/></g></svg>