<svg xmlns="http://www.w3.org/2000/svg" viewBox="0 0 600 340">
  <!-- Background -->
  <rect width="600" height="340" fill="#faf9f4"/>

  <!-- Header bar -->
  <rect width="600" height="42" fill="#f4f1e8"/>
  <rect x="0" y="41" width="600" height="1" fill="#d5d2c9"/>
  <!-- Project title block -->
  <rect x="20" y="15" width="130" height="12" rx="1" fill="#2b3d55" opacity="0.72"/>
  <!-- Status badges -->
  <rect x="454" y="13" width="60" height="16" rx="2" fill="#e5ecf5"/>
  <rect x="522" y="13" width="58" height="16" rx="2" fill="#e5f0e5"/>

  <!-- Column vertical dividers -->
  <rect x="200" y="42" width="1" height="218" fill="#d5d2c9"/>
  <rect x="400" y="42" width="1" height="218" fill="#d5d2c9"/>

  <!-- Column headers -->
  <rect x="16" y="54" width="64" height="6" rx="1" fill="#525d6b" opacity="0.75"/>
  <rect x="216" y="54" width="88" height="6" rx="1" fill="#525d6b" opacity="0.75"/>
  <rect x="416" y="54" width="52" height="6" rx="1" fill="#525d6b" opacity="0.75"/>

  <!-- TO DO — Task 1 -->
  <rect x="10" y="72" width="176" height="52" rx="1" fill="#faf9f4" stroke="#d5d2c9" stroke-width="1"/>
  <rect x="18" y="82" width="112" height="5" rx="1" fill="#16181c" opacity="0.68"/>
  <rect x="18" y="92" width="80" height="4" rx="1" fill="#d5d2c9"/>
  <rect x="18" y="102" width="52" height="12" rx="1" fill="#edeae0"/>

  <!-- TO DO — Task 2 -->
  <rect x="10" y="132" width="176" height="52" rx="1" fill="#faf9f4" stroke="#d5d2c9" stroke-width="1"/>
  <rect x="18" y="142" width="96" height="5" rx="1" fill="#16181c" opacity="0.68"/>
  <rect x="18" y="152" width="72" height="4" rx="1" fill="#d5d2c9"/>
  <rect x="18" y="162" width="52" height="12" rx="1" fill="#edeae0"/>

  <!-- IN PROGRESS — Task 1 (accent border) -->
  <rect x="210" y="72" width="180" height="52" rx="1" fill="#faf9f4" stroke="#4a6280" stroke-width="1.5"/>
  <rect x="218" y="82" width="128" height="5" rx="1" fill="#16181c"/>
  <rect x="218" y="92" width="96" height="4" rx="1" fill="#c4cfd9"/>
  <rect x="218" y="102" width="64" height="12" rx="1" fill="#e5ecf5"/>

  <!-- IN PROGRESS — Task 2 (accent border + risk flag) -->
  <rect x="210" y="132" width="180" height="52" rx="1" fill="#faf9f4" stroke="#4a6280" stroke-width="1"/>
  <rect x="218" y="142" width="108" height="5" rx="1" fill="#16181c"/>
  <rect x="218" y="152" width="80" height="4" rx="1" fill="#c4cfd9"/>
  <rect x="218" y="162" width="60" height="12" rx="1" fill="#fce8e5"/>
  <!-- Risk flag vertical marker -->
  <rect x="383" y="132" width="2" height="52" fill="#e05252" opacity="0.55"/>

  <!-- DONE — Task 1 (muted, green badge) -->
  <rect x="410" y="72" width="176" height="52" rx="1" fill="#faf9f4" stroke="#d5d2c9" stroke-width="1"/>
  <rect x="418" y="82" width="106" height="5" rx="1" fill="#525d6b"/>
  <rect x="418" y="92" width="76" height="4" rx="1" fill="#d5d2c9"/>
  <rect x="418" y="102" width="48" height="12" rx="1" fill="#e5f0e5"/>

  <!-- DONE — Task 2 (muted, green badge) -->
  <rect x="410" y="132" width="176" height="52" rx="1" fill="#faf9f4" stroke="#d5d2c9" stroke-width="1"/>
  <rect x="418" y="142" width="92" height="5" rx="1" fill="#525d6b"/>
  <rect x="418" y="152" width="68" height="4" rx="1" fill="#d5d2c9"/>
  <rect x="418" y="162" width="48" height="12" rx="1" fill="#e5f0e5"/>

  <!-- Timeline section -->
  <rect x="0" y="260" width="600" height="1" fill="#d5d2c9"/>
  <rect x="16" y="272" width="52" height="5" rx="1" fill="#525d6b" opacity="0.5"/>

  <!-- Timeline tick marks -->
  <rect x="10" y="284" width="1" height="6" fill="#d5d2c9"/>
  <rect x="157" y="284" width="1" height="6" fill="#d5d2c9"/>
  <rect x="304" y="284" width="1" height="6" fill="#d5d2c9"/>
  <rect x="451" y="284" width="1" height="6" fill="#d5d2c9"/>
  <rect x="589" y="284" width="1" height="6" fill="#d5d2c9"/>
  <!-- Timeline baseline -->
  <rect x="10" y="290" width="580" height="1" fill="#d5d2c9"/>

  <!-- Phase bars -->
  <rect x="10" y="296" width="132" height="16" rx="1" fill="#c4cfd9"/>
  <rect x="150" y="296" width="136" height="16" rx="1" fill="#4a6280" opacity="0.58"/>
  <rect x="294" y="296" width="112" height="16" rx="1" fill="#d5d2c9"/>
  <rect x="414" y="296" width="112" height="16" rx="1" fill="#d5d2c9" opacity="0.5"/>

  <!-- Phase labels -->
  <rect x="10" y="318" width="60" height="4" rx="1" fill="#d5d2c9"/>
  <rect x="150" y="318" width="64" height="4" rx="1" fill="#d5d2c9"/>
  <rect x="294" y="318" width="48" height="4" rx="1" fill="#d5d2c9"/>
  <rect x="414" y="318" width="44" height="4" rx="1" fill="#d5d2c9"/>

  <!-- Risk marker on timeline -->
  <rect x="302" y="282" width="2" height="30" fill="#e05252" opacity="0.6"/>
  <path d="M304,282 L316,282 L316,288 L304,294 Z" fill="#e05252" opacity="0.6"/>
</svg>
